<svg xmlns="http://www.w3.org/2000/svg" viewBox="0 0 60 60"><defs><style>.cls-1{fill:#117dba;}.cls-2{fill:none;stroke:#117dba;stroke-miterlimit:10;stroke-width:1.7px;}</style></defs><title>IS-Website Icons-Circle-</title><g id="Layer_1" data-name="Layer 1"><path class="cls-1" d="M48.51,32.72a.81.81,0,0,0-.61,0,.79.79,0,0,0-.45.41,4,4,0,0,1-3.4,2.31A3.16,3.16,0,0,1,42.48,35a4.93,4.93,0,0,1-1.9-2.07,8.26,8.26,0,0,1-.41-1v0h4.59a.8.8,0,0,0,0-1.6h-4.9v-.08a6.08,6.08,0,0,1,0-.61,3.71,3.71,0,0,1,0-.47c0-.06,0-.13,0-.19v0h4.89a.79.79,0,0,0,.8-.79.8.8,0,0,0-.8-.8h-4.6v0a6.46,6.46,0,0,1,1-1.89,4.5,4.5,0,0,1,1.36-1.2,3.19,3.19,0,0,1,1.57-.42,4,4,0,0,1,3.29,2.12.74.74,0,0,0,.46.39.76.76,0,0,0,.61-.05.79.79,0,0,0,.39-.47.77.77,0,0,0,0-.61,5.57,5.57,0,0,0-4.65-3h0a4.91,4.91,0,0,0-2.35.62,6.53,6.53,0,0,0-2.55,2.74,8.21,8.21,0,0,0-.65,1.77v0H37.33a.8.8,0,0,0-.8.8.79.79,0,0,0,.8.79h.92v0c0,.06,0,.11,0,.16s0,.33,0,.5,0,.41,0,.66v0h-.91a.8.8,0,1,0,0,1.6H38.5v0a8,8,0,0,0,1.36,2.87,6,6,0,0,0,1.85,1.64,4.91,4.91,0,0,0,2.35.62h0a5.62,5.62,0,0,0,4.78-3.23A.8.8,0,0,0,48.51,32.72Z"/><path class="cls-1" d="M20.68,18.27a13.2,13.2,0,0,1,16.84-.7l-3.1.58a.83.83,0,1,0,.31,1.63l4.81-.9.07,0a.76.76,0,0,0,.16-.06l.14-.09.07-.05s0,0,0-.06l.09-.14.06-.15,0-.15a1,1,0,0,0,0-.17v-.07l-.91-4.84a.83.83,0,1,0-1.63.31L38.14,16A14.86,14.86,0,0,0,19.57,17a.83.83,0,1,0,1.11,1.24Z"/><path class="cls-1" d="M38.83,41.73a13.2,13.2,0,0,1-16.84.7l3.09-.58a.84.84,0,0,0,.67-1,.83.83,0,0,0-1-.66l-4.81.9s0,0-.08,0l-.15.06-.14.09-.07.05s0,0,0,.06,0,0,0,.05a.36.36,0,0,0,0,.09.47.47,0,0,0-.06.15.4.4,0,0,0,0,.15.49.49,0,0,0,0,.17.16.16,0,0,0,0,.07l.9,4.84a.83.83,0,0,0,1.64-.31L21.36,44A14.87,14.87,0,0,0,39.94,43a.83.83,0,0,0-1.11-1.24Z"/><path class="cls-1" d="M16.38,28.4a1.44,1.44,0,1,1,0-2.86H19a.93.93,0,1,0,0-1.85H17.43V22.26a1.06,1.06,0,0,0-2.11,0V23.8l-.48.2a3.3,3.3,0,0,0-2.16,3,3.51,3.51,0,0,0,3.7,3.28,1.44,1.44,0,1,1,0,2.86H13.73a.94.94,0,1,0,0,1.86h1.59V36.4a1.06,1.06,0,0,0,2.11,0V34.86l.49-.2a3.3,3.3,0,0,0,2.15-3A3.51,3.51,0,0,0,16.38,28.4Z"/></g><g id="Layer_3" data-name="Layer 3"><circle class="cls-2" cx="30" cy="30" r="28.7"/></g></svg>